<svg id = "verifyAccount-icon" xmlns="http://www.w3.org/2000/svg" xmlns:xlink="http://www.w3.org/1999/xlink" viewBox="0 0 192 124"><defs><style>.cls-1,.cls-5{fill:#fff;}.cls-1,.cls-10,.cls-11,.cls-12,.cls-9{fill-rule:evenodd;}.cls-2{isolation:isolate;}.cls-3{fill:url(#linear-gradient);}.cls-4{fill:#e8eaed;}.cls-14,.cls-18,.cls-6{fill:none;}.cls-6{stroke:#bdc1c6;stroke-width:0.95px;}.cls-18,.cls-6{stroke-linecap:round;stroke-linejoin:round;}.cls-7{fill:#4285f4;}.cls-8{fill:#bdc1c6;}.cls-9{fill:#eff0f2;}.cls-10{fill:#cdd0d5;}.cls-11{fill:#dfe1e5;}.cls-12{fill:#df382b;}.cls-13{mask:url(#mask);}.cls-15{mask:url(#mask-2);}.cls-16{fill:#34a853;}.cls-17{opacity:0.5;mix-blend-mode:multiply;fill:url(#linear-gradient-2);}.cls-18{stroke:#fff;stroke-width:1.56px;}</style><linearGradient id="linear-gradient" x1="1.84" y1="-860.1" x2="69.09" y2="-860.1" gradientTransform="matrix(1, 0, 0, -1, 0, -740)" gradientUnits="userSpaceOnUse"><stop offset="0" stop-color="#9aa0a6" stop-opacity="0"/><stop offset="0.15" stop-color="#9aa0a6" stop-opacity="0.03"/><stop offset="0.31" stop-color="#9aa0a6" stop-opacity="0.1"/><stop offset="0.46" stop-color="#9aa0a6" stop-opacity="0.22"/><stop offset="0.62" stop-color="#9aa0a6" stop-opacity="0.4"/><stop offset="0.79" stop-color="#9aa0a6" stop-opacity="0.63"/><stop offset="0.95" stop-color="#9aa0a6" stop-opacity="0.9"/><stop offset="1" stop-color="#9aa0a6"/></linearGradient><mask id="mask" x="109.9" y="44.71" width="80.26" height="54.69" maskUnits="userSpaceOnUse"><g id="mask-6"><polygon id="path-5" class="cls-1" points="150.03 99.4 109.9 74.52 150.67 44.71 190.16 74.5 150.03 99.4"/></g></mask><mask id="mask-2" x="109.91" y="58.4" width="25.13" height="62.89" maskUnits="userSpaceOnUse"><g id="mask-8"><path id="path-7" class="cls-1" d="M120.54,63.69l-8.29,5.78a5.32,5.32,0,0,0-2.32,4.36h0a3,3,0,0,0,0,.42h0l0,44.33a2.78,2.78,0,0,0,2.85,2.71H135V88.43l-2.41-1.36-.06-13.18a9.72,9.72,0,0,0-3.08-7h0l-9-8.49Z"/></g></mask><linearGradient id="linear-gradient-2" x1="48.13" y1="110.18" x2="29.17" y2="129.14" gradientUnits="userSpaceOnUse"><stop offset="0" stop-color="#fff"/><stop offset="1" stop-color="#979da5"/></linearGradient></defs><g class="cls-2"><g id="Layer_1" data-name="Layer 1"><rect class="cls-3" x="1.84" y="117.25" width="67.26" height="5.72"/><rect class="cls-4" x="51.24" y="1.04" width="83.82" height="121.92" rx="1.91"/><rect class="cls-5" x="60.76" y="86.77" width="64.77" height="17.15" rx="1.91"/><line class="cls-6" x1="116.01" y1="91.53" x2="116.01" y2="99.15"/><line class="cls-6" x1="113.31" y1="92.64" x2="118.7" y2="98.03"/><line class="cls-6" x1="112.2" y1="95.34" x2="119.82" y2="95.34"/><line class="cls-6" x1="113.31" y1="98.03" x2="118.7" y2="92.64"/><path class="cls-7" d="M74.57,66.76h35.25a1.43,1.43,0,0,1,1.43,1.43h0a1.43,1.43,0,0,1-1.43,1.43H74.57a1.42,1.42,0,0,1-1.42-1.43h0A1.42,1.42,0,0,1,74.57,66.76Z"/><path class="cls-8" d="M81.72,77.24h21a1,1,0,0,1,1,1h0a1,1,0,0,1-1,1h-21a1,1,0,0,1-1-1h0A1,1,0,0,1,81.72,77.24Z"/><g id="PRIVACY_512dp" data-name="PRIVACY 512dp"><path class="cls-7" d="M77.43,51.71c0-4,6.86-7.19,14.77-7.33,7.9.14,14.76,3.37,14.76,7.33v.42a19.05,19.05,0,1,0-29.53,0Z"/><path class="cls-5" d="M107,51.71c0-4-6.86-7.19-14.76-7.33-7.91.14-14.77,3.37-14.77,7.33v.42a19,19,0,0,0,26.8,2.72A18.47,18.47,0,0,0,107,52.13Z"/><circle class="cls-5" cx="92.2" cy="33.27" r="7.62"/></g><path id="Fill-4" class="cls-9" d="M166.21,65.84h0"/><path id="Fill-10" class="cls-10" d="M186.11,122.94,114,123a4.13,4.13,0,0,1-4.12-4.15V75A3.1,3.1,0,0,1,113,71.88h74.64a2.55,2.55,0,0,1,2.54,2.55v44.42a4.09,4.09,0,0,1-4.07,4.1"/><path id="Fill-12" class="cls-9" d="M187.94,70.11,153.28,44.42a5.45,5.45,0,0,0-6.5,0L112.13,70.12a5.51,5.51,0,0,0-2.23,4.44l80.27,0a5.5,5.5,0,0,0-2.23-4.43"/><path id="Fill-14" class="cls-1" d="M112.12,70.59l34.66-25.71a5.44,5.44,0,0,1,6.49,0l34.67,25.7a5.45,5.45,0,0,1,2.2,4h0a5.5,5.5,0,0,0-2.23-4.43l-34.67-25.7a5.46,5.46,0,0,0-6.49,0L112.13,70.12a5.52,5.52,0,0,0-2.23,4.44h0a5.49,5.49,0,0,1,2.19-4"/><path id="Fill-16" class="cls-1" d="M120.13,97.13A2.89,2.89,0,0,0,123,100l54.34-.09a2.89,2.89,0,0,0,2.86-2.9l-.06-47.31a2.88,2.88,0,0,0-2.88-2.89l-54.34.09a2.89,2.89,0,0,0-2.86,2.9Z"/><path id="Fill-20" class="cls-9" d="M149.06,100l1-.61-5.68-3.52L109.91,74.56s0,0,0,.07l0,45.7a2.73,2.73,0,0,0,2.19,2.58l3.49-2.17Z"/><path id="Fill-22" class="cls-11" d="M149.08,100l-33.45,20.73-3.49,2.17a3,3,0,0,0,.52,0l74.81,0a2.73,2.73,0,0,0,2.71-2.5V74.54Z"/><path id="Fill-24" class="cls-9" d="M149.08,100l-33.45,20.73-3.49,2.17a3,3,0,0,0,.52,0h1.51l1.46-.9,33.45-20.74,41.09-25.47V74.54Z"/><path id="Fill-26" class="cls-12" d="M150.67,69a5.91,5.91,0,0,0-4.56,2,7.39,7.39,0,0,0-.86,7.51,4,4,0,0,0,2.36,2.2c1.38.48,3.27.41,4.18-.9s1-3.1,1-5.07V69.37a6.2,6.2,0,0,0-2.13-.37m-1.48,14a6.88,6.88,0,0,1-2.24-.38,6,6,0,0,1-3.52-3.28,9.46,9.46,0,0,1,1.14-9.59,8.22,8.22,0,0,1,9.52-2l.08,0a1,1,0,0,1,.62.93v6c0,2.23-.1,4.39-1.37,6.21a5,5,0,0,1-4.23,2"/><path id="Fill-28" class="cls-12" d="M150.47,91.18a16.36,16.36,0,0,1,0-32.72c4.43,0,8.14,1.45,10.71,4.18,2.87,3,4.3,7.62,4,12.9-.18,3.45-1.52,5.82-3.77,6.67a6.4,6.4,0,0,1-6.17-.74c-2.06-1.55-2.46-3.55-2.46-6.69a1,1,0,1,1,2,0c0,3,.37,4.13,1.65,5.09a4.47,4.47,0,0,0,4.29.47c2-.75,2.4-3.4,2.48-4.91.25-4.72-1-8.77-3.48-11.42-2.22-2.35-5.34-3.55-9.27-3.54a14.35,14.35,0,1,0,2.94,28.4,1,1,0,0,1,1.17.77,1,1,0,0,1-.77,1.19,16.16,16.16,0,0,1-3.33.35"/><g class="cls-13"><polygon id="Fill-30" class="cls-14" points="150.03 99.4 190.16 74.5 150.67 44.71 109.9 74.52 150.03 99.4"/></g><g class="cls-15"><path id="Fill-34" class="cls-14" d="M120.54,63.69l-8.29,5.78a5.32,5.32,0,0,0-2.32,4.36h0a3,3,0,0,0,0,.42h0l0,44.33a2.78,2.78,0,0,0,2.85,2.71H135V88.43l-2.41-1.36-.06-13.18a9.72,9.72,0,0,0-3.08-7h0l-9-8.49Z"/></g><ellipse class="cls-16" cx="50.51" cy="107.8" rx="15.04" ry="15.15"/><path class="cls-17" d="M56.71,120a15,15,0,0,1-18.26-11,15.22,15.22,0,0,1,2.81-13.13,15.23,15.23,0,0,0-5.34,15.66,15,15,0,0,0,26.36,5.72A14.9,14.9,0,0,1,56.71,120Z"/><polyline class="cls-18" points="44.26 108.96 48.41 113.27 56.7 103.87"/></g></g></svg>
